<svg width="289" height="283" viewBox="0 0 289 283" fill="none" xmlns="http://www.w3.org/2000/svg">
<ellipse cx="156.87" cy="141.369" rx="131.13" ry="125.255" fill="#F4E4D6"/>
<path d="M249.117 150.7C249.117 196.991 211.128 234.568 164.203 234.568C117.279 234.568 79.29 196.991 79.29 150.7C79.29 104.41 117.279 66.8325 164.203 66.8325C211.128 66.8325 249.117 104.41 249.117 150.7Z" fill="#795548" stroke="#302318" stroke-width="5"/>
<path d="M244.805 143.697C247.644 193.884 211.345 230.649 163.068 230.649C126.173 227.147 114.821 213.142 111.415 210.807L244.805 143.697Z" fill="#5D4037"/>
<path d="M180.503 57.3297C182.16 57.3297 183.503 55.9865 183.503 54.3297V38.1542C183.503 36.4973 182.16 35.1542 180.503 35.1542H145.067C143.41 35.1542 142.067 36.4973 142.067 38.1542V54.3297C142.067 55.9865 143.41 57.3297 145.067 57.3297H162.501H173.002H180.503Z" fill="#382621"/>
<path d="M216.992 75.4202L229.975 83.33C231.302 84.1381 233.025 83.8003 233.949 82.5514L241.289 72.6217C242.286 71.2734 241.984 69.3699 240.619 68.3961L217.78 52.1033C216.412 51.1278 214.51 51.465 213.562 52.851L206.13 63.7089C205.221 65.0359 205.521 66.8431 206.809 67.8061L216.992 75.4202Z" fill="#382621"/>
<path d="M213.587 80.6723L216.992 75.4202M216.992 75.4202L229.975 83.33C231.302 84.1381 233.025 83.8003 233.949 82.5514L241.289 72.6217C242.286 71.2734 241.984 69.3699 240.619 68.3961L217.78 52.1033C216.412 51.1278 214.51 51.465 213.562 52.851L206.13 63.7089C205.221 65.0359 205.521 66.8431 206.809 67.8061L216.992 75.4202ZM162.501 66.0832V57.3297M162.501 57.3297H145.067C143.41 57.3297 142.067 55.9865 142.067 54.3297V38.1542C142.067 36.4973 143.41 35.1542 145.067 35.1542H180.503C182.16 35.1542 183.503 36.4973 183.503 38.1542V54.3297C183.503 55.9865 182.16 57.3297 180.503 57.3297H173.002H162.501ZM76.7904 108.683H42.1657M66.0057 129.692H26.84M63.1676 151.867H3M66.0057 176.377H30.2457" stroke="#302318" stroke-width="5" stroke-linecap="round"/>
<path d="M81.0723 192.37C88.6521 203.159 91.684 210.865 109.875 223.967M117.455 230.903C143.985 247.087 216.296 255.872 250.86 186.204" stroke="#302318" stroke-width="3" stroke-linecap="round"/>
<mask id="path-7-inside-1_16_1711" fill="white">
<path d="M224.371 151.284C224.371 184.48 197.433 211.391 164.204 211.391C130.974 211.391 104.036 184.48 104.036 151.284C104.036 118.087 130.974 91.1765 164.204 91.1765C197.433 91.1765 224.371 118.087 224.371 151.284Z"/>
</mask>
<path d="M224.371 151.284C224.371 184.48 197.433 211.391 164.204 211.391C130.974 211.391 104.036 184.48 104.036 151.284C104.036 118.087 130.974 91.1765 164.204 91.1765C197.433 91.1765 224.371 118.087 224.371 151.284Z" fill="#FEFEFE"/>
<path d="M160.001 109.267C160.001 110.648 161.12 111.767 162.501 111.767C163.882 111.767 165.001 110.648 165.001 109.267H160.001ZM194.949 117.858C193.892 118.747 193.756 120.324 194.645 121.381C195.534 122.437 197.111 122.573 198.167 121.684L194.949 117.858ZM206.208 151.702C204.827 151.702 203.708 152.821 203.708 154.202C203.708 155.582 204.827 156.702 206.208 156.702V151.702ZM194.723 182.019C193.649 181.151 192.075 181.318 191.208 182.393C190.34 183.467 190.507 185.041 191.581 185.908L194.723 182.019ZM165.001 190.383C165.001 189.002 163.882 187.883 162.501 187.883C161.12 187.883 160.001 189.002 160.001 190.383H165.001ZM132.506 188.041C133.469 187.051 133.447 185.468 132.457 184.506C131.468 183.543 129.885 183.565 128.922 184.555L132.506 188.041ZM122.768 156.702C124.148 156.702 125.268 155.582 125.268 154.202C125.268 152.821 124.148 151.702 122.768 151.702V156.702ZM127.633 121.857C128.785 122.618 130.336 122.302 131.097 121.15C131.858 119.998 131.542 118.447 130.39 117.686L127.633 121.857ZM165.001 136.111C165.001 134.73 163.882 133.611 162.501 133.611C161.12 133.611 160.001 134.73 160.001 136.111H165.001ZM162.501 154.202V156.702C163.882 156.702 165.001 155.582 165.001 154.202H162.501ZM148.31 151.702C146.93 151.702 145.81 152.821 145.81 154.202C145.81 155.582 146.93 156.702 148.31 156.702V151.702ZM160.001 95.2615V109.267H165.001V95.2615H160.001ZM201.193 112.606L194.949 117.858L198.167 121.684L204.411 116.432L201.193 112.606ZM219.263 151.702H206.208V156.702H219.263V151.702ZM202.67 188.438L194.723 182.019L191.581 185.908L199.528 192.327L202.67 188.438ZM165.001 206.139V190.383H160.001V206.139H165.001ZM128.533 192.126L132.506 188.041L128.922 184.555L124.949 188.64L128.533 192.126ZM109.145 156.702H122.768V151.702H109.145V156.702ZM119.686 116.605L127.633 121.857L130.39 117.686L122.443 112.434L119.686 116.605ZM160.001 136.111V154.202H165.001V136.111H160.001ZM162.501 151.702H148.31V156.702H162.501V151.702ZM219.371 151.284C219.371 181.714 194.677 206.391 164.204 206.391V216.391C200.19 216.391 229.371 187.246 229.371 151.284H219.371ZM164.204 206.391C133.731 206.391 109.036 181.714 109.036 151.284H99.0361C99.0361 187.246 128.217 216.391 164.204 216.391V206.391ZM109.036 151.284C109.036 120.854 133.731 96.1765 164.204 96.1765V86.1765C128.217 86.1765 99.0361 115.321 99.0361 151.284H109.036ZM164.204 96.1765C194.677 96.1765 219.371 120.854 219.371 151.284H229.371C229.371 115.321 200.19 86.1765 164.204 86.1765V96.1765Z" fill="#302318" mask="url(#path-7-inside-1_16_1711)"/>
<path d="M104.07 50.5414C104.07 53.081 101.934 55.1688 99.2639 55.1688C96.5934 55.1688 94.458 53.081 94.458 50.5414C94.458 48.0017 96.5934 45.914 99.2639 45.914C101.934 45.914 104.07 48.0017 104.07 50.5414Z" stroke="#302318"/>
<path d="M260.212 40.2866C260.212 42.8263 258.077 44.914 255.406 44.914C252.736 44.914 250.601 42.8263 250.601 40.2866C250.601 37.747 252.736 35.6592 255.406 35.6592C258.077 35.6592 260.212 37.747 260.212 40.2866Z" stroke="#302318"/>
<path d="M238.989 239.522C238.989 242.062 236.853 244.15 234.183 244.15C231.512 244.15 229.377 242.062 229.377 239.522C229.377 236.983 231.512 234.895 234.183 234.895C236.853 234.895 238.989 236.983 238.989 239.522Z" stroke="#302318"/>
<path d="M69.2028 216.083C69.2028 217.813 67.7462 219.245 65.9129 219.245C64.0797 219.245 62.623 217.813 62.623 216.083C62.623 214.352 64.0797 212.92 65.9129 212.92C67.7462 212.92 69.2028 214.352 69.2028 216.083Z" stroke="#302318"/>
<path d="M271.324 137.707L274.874 135.992C276.291 135.307 277.996 135.834 278.78 137.198L279.726 138.843C280.534 140.25 282.316 140.759 283.745 139.991L288 137.707" stroke="#302318"/>
<path d="M109.685 279.829L111.007 276.32C111.565 274.839 113.231 274.047 114.787 274.522L116.54 275.057C118.146 275.547 119.857 274.688 120.363 273.138L121.796 268.752" stroke="#302318"/>
<path d="M156.681 13.205L158.003 9.69579C158.561 8.21512 160.227 7.42303 161.783 7.89796L163.536 8.43281C165.142 8.92273 166.853 8.06409 167.359 6.51389L168.792 2.128" stroke="#302318"/>
<path d="M28.518 63.5208L32.1219 64.8296C33.6544 65.3862 34.4631 67.0109 33.955 68.5125L33.3884 70.187C32.8643 71.7359 33.7418 73.4052 35.3469 73.9124L39.8562 75.3373" stroke="#302318"/>
</svg>
