<svg width="286" height="301" viewBox="0 0 286 301" fill="none" xmlns="http://www.w3.org/2000/svg">
<path d="M200.262 79.6244L142.32 100.424C140.039 101.244 137.954 102.532 136.202 104.207C134.449 105.882 133.067 107.906 132.146 110.148L80.9223 234.79C80.0515 236.907 79.6091 239.177 79.6207 241.466C79.6323 243.756 80.0977 246.021 80.9899 248.129C81.882 250.238 83.1834 252.149 84.8186 253.752C86.4539 255.355 88.3906 256.617 90.5168 257.467L179.118 292.886C181.234 293.732 183.495 294.153 185.773 294.124C188.051 294.095 190.301 293.617 192.395 292.718C194.488 291.818 196.383 290.514 197.972 288.881C199.56 287.248 200.811 285.318 201.653 283.201L251.273 158.416C252.193 156.113 252.608 153.639 252.49 151.162C252.372 148.685 251.723 146.262 250.587 144.057L221.539 87.9771C219.608 84.2414 216.386 81.3345 212.472 79.7979C208.558 78.2613 204.218 78.1997 200.262 79.6244V79.6244ZM207.134 106.944C209.166 108.909 210.57 111.433 211.168 114.196C211.766 116.958 211.531 119.837 210.493 122.466C209.455 125.095 207.66 127.358 205.336 128.968C203.012 130.577 200.263 131.461 197.437 131.508C194.61 131.556 191.833 130.763 189.457 129.232C187.081 127.701 185.212 125.5 184.087 122.906C182.962 120.313 182.631 117.444 183.136 114.663C183.642 111.881 184.96 109.312 186.926 107.281C189.559 104.562 193.163 102.999 196.947 102.934C200.731 102.869 204.387 104.308 207.111 106.935L207.134 106.944Z" fill="#5D4037"/>
<g opacity="0.4">
<path d="M200.262 79.6244L142.32 100.424C140.039 101.244 137.954 102.532 136.202 104.207C134.449 105.882 133.067 107.906 132.146 110.148L80.9223 234.79C80.0515 236.907 79.6091 239.177 79.6207 241.466C79.6323 243.756 80.0977 246.021 80.9899 248.129C81.882 250.238 83.1834 252.149 84.8186 253.752C86.4539 255.355 88.3906 256.617 90.5168 257.467L179.118 292.886C181.234 293.732 183.495 294.153 185.773 294.124C188.051 294.095 190.301 293.617 192.395 292.718C194.488 291.818 196.383 290.514 197.972 288.881C199.56 287.248 200.811 285.318 201.653 283.201L251.273 158.416C252.193 156.113 252.608 153.639 252.49 151.162C252.372 148.685 251.723 146.262 250.587 144.057L221.539 87.9771C219.608 84.2414 216.386 81.3345 212.472 79.7979C208.558 78.2613 204.218 78.1997 200.262 79.6244V79.6244ZM207.134 106.944C209.166 108.909 210.57 111.433 211.168 114.196C211.766 116.958 211.531 119.837 210.493 122.466C209.455 125.095 207.66 127.358 205.336 128.968C203.012 130.577 200.263 131.461 197.437 131.508C194.61 131.556 191.833 130.763 189.457 129.232C187.081 127.701 185.212 125.5 184.087 122.906C182.962 120.313 182.631 117.444 183.136 114.663C183.642 111.881 184.96 109.312 186.926 107.281C189.559 104.562 193.163 102.999 196.947 102.934C200.731 102.869 204.387 104.308 207.111 106.935L207.134 106.944Z" fill="black"/>
</g>
<path d="M202.91 73.0463L144.962 93.8634C142.681 94.6834 140.597 95.9723 138.844 97.647C137.092 99.3217 135.71 101.345 134.787 103.587L83.5639 228.229C82.6923 230.346 82.2493 232.616 82.2605 234.906C82.2717 237.195 82.7368 239.46 83.6291 241.569C84.5214 243.678 85.823 245.589 87.4587 247.192C89.0944 248.795 91.0317 250.057 93.1585 250.906L181.758 286.331C183.878 287.178 186.145 287.598 188.428 287.567C190.711 287.535 192.965 287.053 195.061 286.148C197.157 285.243 199.054 283.932 200.642 282.292C202.23 280.651 203.479 278.713 204.315 276.589L253.933 151.81C254.852 149.507 255.267 147.033 255.149 144.556C255.03 142.078 254.382 139.655 253.247 137.45L224.197 81.3762C222.263 77.6415 219.038 74.7373 215.121 73.2048C211.205 71.6722 206.865 71.6159 202.91 73.0463V73.0463ZM209.785 100.36C211.817 102.325 213.221 104.849 213.819 107.612C214.416 110.375 214.181 113.253 213.143 115.882C212.105 118.512 210.311 120.774 207.987 122.384C205.663 123.993 202.914 124.878 200.088 124.925C197.261 124.972 194.484 124.18 192.108 122.648C189.732 121.117 187.863 118.916 186.738 116.322C185.612 113.729 185.282 110.86 185.787 108.079C186.292 105.298 187.611 102.729 189.577 100.697C192.21 97.9784 195.814 96.4152 199.598 96.3503C203.382 96.2855 207.037 97.7241 209.762 100.351L209.785 100.36Z" fill="#5D4037"/>
<path d="M139.774 221.331C129.083 216.915 124.984 207.582 128.807 198.347C132.63 189.111 141.988 185.446 152.764 189.896C163.541 194.346 167.586 203.566 163.771 212.798C159.956 222.03 150.462 225.753 139.774 221.331ZM149.024 198.959C142.214 196.146 137.881 197.426 136.235 201.416C134.622 205.307 136.848 209.412 143.555 212.185C150.261 214.957 154.731 213.619 156.343 209.728C157.989 205.738 155.816 201.766 149.024 198.959ZM145.159 160.879L149.618 150.099L195.103 219.599L190.645 230.379L145.159 160.879ZM187.518 190.583C176.829 186.161 172.728 176.833 176.511 167.681C180.334 158.446 189.823 154.734 200.508 159.148C211.194 163.561 215.27 172.885 211.438 182.124C207.68 191.247 198.18 194.987 187.518 190.583ZM196.725 168.3C190.024 165.53 185.588 166.768 183.942 170.758C182.33 174.649 184.466 178.713 191.264 181.522C198.062 184.331 202.438 182.962 204.051 179.071C205.674 175.072 203.403 171.061 196.694 168.294L196.725 168.3Z" fill="#FEFEFE"/>
<path d="M227.566 87.802C227.99 87.4457 228.46 87.1473 228.962 86.9147C229.897 86.3843 231.29 85.6212 233.106 84.6778C234.922 83.7343 237.154 82.5945 239.787 81.3644C242.42 80.1343 245.456 78.7888 248.921 77.5297C252.691 76.1297 256.572 75.0508 260.524 74.3046L262.142 74.0162L263.799 73.7964C264.936 73.6347 266.081 73.5344 267.229 73.496C269.681 73.3699 272.135 73.715 274.457 74.5127C275.687 74.9654 276.829 75.6308 277.829 76.4786C278.861 77.3588 279.702 78.4407 280.301 79.6579C281.507 82.1456 281.893 84.9517 281.403 87.6726C280.882 90.4225 279.762 93.0242 278.124 95.2937C276.493 97.579 274.602 99.6672 272.489 101.516C268.323 105.145 263.575 108.047 258.445 110.099C256.03 111.09 253.557 111.931 251.039 112.617C248.592 113.292 246.183 113.901 243.81 114.446C234.343 116.592 225.619 117.713 218.243 117.656C216.402 117.643 214.658 117.569 213 117.445C212.174 117.377 211.369 117.305 210.586 117.195C209.82 117.112 209.061 116.968 208.317 116.765C206.89 116.42 205.654 115.531 204.874 114.287C204.267 113.241 203.991 112.036 204.081 110.83C204.113 110.33 204.191 109.835 204.313 109.349C204.433 108.927 204.588 108.515 204.776 108.119C205.063 107.494 205.452 106.921 205.927 106.425C206.223 106.125 206.563 105.874 206.936 105.679C207.19 105.556 207.321 105.51 207.337 105.536C207.353 105.562 207.242 105.657 207.024 105.821C206.706 106.057 206.42 106.333 206.171 106.642C205.767 107.144 205.443 107.706 205.21 108.306C205.06 108.689 204.937 109.082 204.842 109.482C204.754 109.937 204.706 110.398 204.698 110.86C204.665 111.929 204.95 112.983 205.517 113.89C206.224 114.932 207.311 115.654 208.545 115.903C209.252 116.078 209.973 116.196 210.7 116.254C211.459 116.342 212.248 116.388 213.062 116.437C214.697 116.518 216.422 116.55 218.237 116.535C225.484 116.454 234.118 115.244 243.475 113.027C245.817 112.47 248.2 111.848 250.626 111.161C253.083 110.476 255.496 109.641 257.852 108.662C262.813 106.661 267.407 103.849 271.446 100.342C273.47 98.5675 275.284 96.5663 276.851 94.3777C278.361 92.2993 279.399 89.9166 279.894 87.3957C280.333 85.0001 280.009 82.5269 278.967 80.3254C277.932 78.2568 276.142 76.6646 273.967 75.8774C271.813 75.1361 269.538 74.8131 267.262 74.9257C266.157 74.9507 265.054 75.0347 263.958 75.1774L262.356 75.3597L260.757 75.6162C256.863 76.299 253.031 77.3 249.301 78.609C245.864 79.7804 242.818 81.0358 240.15 82.2054C237.482 83.375 235.227 84.4065 233.377 85.27L229.127 87.2126C228.633 87.4728 228.109 87.6708 227.566 87.802V87.802Z" fill="#263238"/>
<path d="M115.289 111.549C115.257 111.628 103.48 108.741 88.9594 105.093C74.4384 101.446 62.6865 98.4161 62.7094 98.326C62.7324 98.236 74.5178 101.133 89.0388 104.781C103.56 108.429 115.312 111.459 115.289 111.549Z" fill="#263238"/>
<path d="M73.2333 40.0543C73.2882 40.0879 73.3387 40.1282 73.3836 40.1743L73.8057 40.556L75.4111 42.0427L81.2796 47.5551C86.2401 52.199 93.1168 58.5937 100.821 65.5466C108.525 72.4994 115.586 78.6836 120.724 83.1342C123.281 85.348 125.357 87.1436 126.817 88.3996C127.517 89.0122 128.071 89.4934 128.468 89.8386C128.644 89.9951 128.778 90.122 128.89 90.2203C128.941 90.2602 128.987 90.3054 129.028 90.3551C128.969 90.3265 128.915 90.289 128.868 90.2441L128.423 89.8863C128.019 89.5582 127.423 89.0804 126.731 88.4975C125.267 87.2858 123.162 85.5119 120.575 83.306C115.402 78.8941 108.29 72.7223 100.608 65.7787C92.927 58.835 86.0401 52.4163 81.1196 47.7223C78.6507 45.4049 76.6803 43.4602 75.3243 42.1268L73.7646 40.5924C73.5996 40.4267 73.47 40.2885 73.3653 40.1868L73.2333 40.0543Z" fill="#263238"/>
<path d="M130.608 24.0492C130.691 24.0232 133.795 34.7431 137.511 48.0055C141.226 61.2679 144.219 72.016 144.13 72.0398C144.041 72.0635 140.945 61.3402 137.228 48.0835C133.51 34.8268 130.521 24.0673 130.608 24.0492Z" fill="#263238"/>
<path d="M109.409 132.154C109.433 132.243 104.127 133.767 97.6001 135.58C91.0727 137.394 85.7206 138.787 85.6967 138.731C85.6729 138.675 90.9787 137.118 97.5061 135.304C104.033 133.491 109.383 132.071 109.409 132.154Z" fill="#263238"/>
<path d="M179.656 48.2657C179.736 48.2978 176.326 52.756 172.067 58.1757C167.807 63.5954 164.297 67.9406 164.227 67.8857C164.156 67.8308 167.557 63.3954 171.816 57.9757C176.076 52.5559 179.587 48.2051 179.656 48.2657Z" fill="#263238"/>
<path d="M150.586 119.959L149.946 115.4L146.944 111.908L151.506 111.262L155.003 108.263L155.643 112.822L158.643 116.319L154.084 116.959L150.586 119.959Z" fill="#FEFEFE"/>
<path d="M136.652 137.607L136.429 136.008L135.379 134.784L136.972 134.559L138.196 133.509L138.419 135.108L139.469 136.331L137.875 136.557L136.652 137.607Z" fill="#FEFEFE"/>
<path d="M167.955 135.356L167.523 132.27L165.49 129.903L168.576 129.471L170.943 127.439L171.375 130.525L173.407 132.891L170.321 133.324L167.955 135.356Z" fill="#FEFEFE"/>
<path d="M131.636 94.3111L125.988 84.353C129.479 78.6842 130.724 71.9145 129.478 65.3744C128.232 58.8343 124.584 52.9969 119.253 49.0095C113.921 45.0221 107.291 43.173 100.665 43.8258C94.0393 44.4786 87.8973 47.586 83.4464 52.5372C78.9954 57.4885 76.5573 63.9255 76.6112 70.583C76.6652 77.2406 79.2073 83.6372 83.738 88.5156C88.2687 93.3941 94.4602 96.4015 101.096 96.9468C107.731 97.4921 114.33 95.5358 119.597 91.4625L131.636 94.3111Z" fill="white"/>
<path d="M131.637 94.3111L119.573 91.5484C119.562 91.547 119.552 91.5434 119.543 91.5379C119.535 91.5324 119.527 91.525 119.521 91.5163C119.515 91.5076 119.511 91.4977 119.51 91.4874C119.508 91.477 119.509 91.4664 119.511 91.4563C119.511 91.4563 119.511 91.4563 119.511 91.4256L119.622 91.5361C117.933 92.8497 116.095 93.9584 114.145 94.8391C111.832 95.8791 109.383 96.584 106.87 96.9327C105.475 97.1271 104.066 97.1969 102.659 97.1414C101.928 97.1046 101.191 97.0861 100.449 97.0248L98.1953 96.6809C91.4909 95.366 85.5393 91.546 81.5515 85.9984C79.3356 82.9282 77.8013 79.4201 77.0513 75.7088C76.2818 71.7842 76.3887 67.7382 77.3644 63.8598C78.3712 59.8074 80.3284 56.053 83.074 52.9071L84.1607 51.6792C84.5229 51.274 84.9465 50.9425 85.3333 50.5741C85.7201 50.2058 86.1069 49.8313 86.5612 49.5243L87.8382 48.5665C88.259 48.243 88.7021 47.9496 89.1643 47.6886L90.515 46.8721L91.927 46.1845C92.3905 45.95 92.8683 45.745 93.3575 45.5705C97.147 44.0679 101.226 43.4384 105.292 43.7287C109.139 43.9885 112.881 45.0932 116.251 46.9642C122.301 50.3488 126.818 55.9297 128.868 62.5521C129.695 65.3634 130.086 68.2849 130.028 71.2148C129.954 73.7568 129.516 76.275 128.727 78.6925C128.062 80.702 127.163 82.6265 126.05 84.4267V84.3469L131.63 94.3418L125.902 84.3899C125.897 84.3785 125.893 84.3659 125.893 84.353C125.893 84.3402 125.897 84.3276 125.902 84.3162C126.994 82.521 127.874 80.6049 128.524 78.6066C129.3 76.2039 129.726 73.702 129.789 71.1779C129.835 68.27 129.44 65.372 128.616 62.5828C126.558 56.0418 122.071 50.5381 116.079 47.2036C112.745 45.3595 109.045 44.2717 105.243 44.0172C101.222 43.7383 97.1888 44.3678 93.4435 45.8591C92.9607 46.0347 92.4891 46.2397 92.0314 46.473L90.6378 47.1483L89.2994 47.9587C88.8442 48.2171 88.4073 48.5064 87.9917 48.8244L86.727 49.7699C86.2972 50.0768 85.935 50.4697 85.5359 50.8136C85.1369 51.1574 84.7317 51.5012 84.3817 51.9002L83.3073 53.0851C80.5918 56.1933 78.6556 59.9036 77.6591 63.9089C76.6937 67.7406 76.5847 71.738 77.3398 75.6167C78.0795 79.2865 79.5927 82.7566 81.7786 85.7958C85.7187 91.2914 91.6004 95.0838 98.2322 96.4047L100.461 96.7485C101.198 96.8099 101.928 96.8283 102.646 96.8713C104.045 96.9308 105.446 96.865 106.833 96.6748C109.335 96.3444 111.777 95.658 114.084 94.6365C116.025 93.7723 117.857 92.6822 119.542 91.3888C119.549 91.3808 119.559 91.3744 119.569 91.3701C119.579 91.3657 119.589 91.3635 119.6 91.3635C119.611 91.3635 119.622 91.3657 119.632 91.3701C119.642 91.3744 119.651 91.3808 119.659 91.3888C119.668 91.4035 119.673 91.4205 119.673 91.4379C119.673 91.4553 119.668 91.4723 119.659 91.487V91.487L119.616 91.3581L131.637 94.3111Z" fill="#263238"/>
<path d="M95.481 65.3393C95.0644 65.1428 94.6145 65.0262 94.1549 64.9955C93.4813 64.8874 92.7911 64.955 92.1512 65.1916C91.5113 65.4282 90.9432 65.8259 90.502 66.3462C93.3813 68.0161 97.3044 70.2324 100.11 71.8348L103.653 69.8088C101.099 68.4029 97.8938 66.6347 95.481 65.3393Z" fill="#5D4037"/>
<g opacity="0.3">
<path d="M95.481 65.3393C95.0644 65.1428 94.6145 65.0262 94.1549 64.9955C93.4813 64.8874 92.7911 64.955 92.1512 65.1916C91.5113 65.4282 90.9432 65.8259 90.502 66.3462C93.3813 68.0161 97.3044 70.2324 100.11 71.8348L103.653 69.8088C101.099 68.4029 97.8938 66.6347 95.481 65.3393Z" fill="black"/>
</g>
<path d="M106.33 75.5675L106.201 75.457C105.317 74.9475 104.359 73.9774 103.488 73.9959C103.15 73.9959 102.782 74.2967 101.904 74.7878C100.443 75.6167 97.9806 77.0594 96.5071 77.8575C95.2793 78.5513 93.7199 79.0854 92.2894 78.6188C91.5595 78.3507 90.8883 77.9442 90.3125 77.4216L106.324 68.1389C106.244 67.8994 106.158 67.6723 106.078 67.439C105.756 66.4996 105.747 65.481 106.053 64.5362C106.36 63.5914 106.964 62.7715 107.776 62.1998C108.588 61.6281 109.564 61.3355 110.557 61.366C111.55 61.3965 112.506 61.7484 113.281 62.3688C114.057 62.9892 114.61 63.8446 114.857 64.8064C115.105 65.7682 115.034 66.7844 114.654 67.7022C114.275 68.6201 113.608 69.3899 112.753 69.896C111.899 70.4021 110.903 70.6171 109.916 70.5087C109.547 70.4848 109.178 70.5589 108.847 70.7236C108.233 71.0183 107.669 71.3928 106.938 71.8102C108.166 72.3628 109.007 73.2468 110.45 73.1118C112.439 72.9276 114.201 74.3704 114.809 76.292C115.095 77.2102 115.084 78.1954 114.778 79.1071C114.471 80.0188 113.885 80.8104 113.102 81.3693C112.314 81.9349 111.367 82.2362 110.398 82.2299C109.428 82.2236 108.485 81.9101 107.705 81.3343C106.924 80.7586 106.346 79.9503 106.054 79.0255C105.762 78.1008 105.771 77.1072 106.078 76.1876C106.152 76.0096 106.256 75.8008 106.33 75.5675ZM110.419 68.2003C110.713 68.2036 111.004 68.148 111.275 68.0366C111.547 67.9253 111.793 67.7605 112 67.552C112.207 67.3436 112.37 67.0958 112.479 66.8232C112.588 66.5507 112.641 66.259 112.635 65.9655C112.626 65.3867 112.391 64.8345 111.98 64.4263C111.57 64.0181 111.016 63.7862 110.437 63.7799C109.845 63.7863 109.278 64.0255 108.86 64.4459C108.442 64.8662 108.206 65.4341 108.203 66.0269C108.22 66.6041 108.461 67.1519 108.874 67.555C109.288 67.9582 109.842 68.1851 110.419 68.188V68.2003ZM110.419 79.9142C110.998 79.9194 111.556 79.6984 111.975 79.2982C112.393 78.898 112.639 78.3503 112.66 77.7716C112.672 77.4779 112.625 77.1848 112.522 76.9097C112.418 76.6347 112.26 76.3833 112.057 76.1706C111.855 75.958 111.611 75.7885 111.341 75.6722C111.071 75.5559 110.78 75.4953 110.487 75.4939C109.907 75.4869 109.348 75.7051 108.926 76.1025C108.505 76.5 108.254 77.0456 108.227 77.6242C108.222 78.211 108.445 78.7768 108.85 79.2019C109.254 79.627 109.808 79.8781 110.394 79.9019L110.419 79.9142Z" fill="#5D4037"/>
<path d="M104.463 71.7612C104.408 71.7612 104.433 71.3498 103.978 71.0244C103.853 70.9379 103.709 70.8831 103.558 70.8649C103.408 70.8467 103.255 70.8657 103.113 70.9201C102.944 70.9873 102.799 71.1037 102.697 71.2542C102.595 71.4047 102.54 71.5824 102.54 71.7642C102.54 71.9461 102.595 72.1237 102.697 72.2742C102.799 72.4247 102.944 72.5411 103.113 72.6084C103.255 72.6628 103.408 72.6817 103.558 72.6635C103.709 72.6453 103.853 72.5906 103.978 72.504C104.433 72.1786 104.408 71.7489 104.463 71.7612C104.519 71.7734 104.512 71.8594 104.463 72.0313C104.427 72.2869 104.295 72.5192 104.095 72.6821C103.944 72.8077 103.762 72.8923 103.569 72.9278C103.375 72.9633 103.176 72.9484 102.99 72.8847C102.757 72.8044 102.554 72.6533 102.411 72.4524C102.267 72.2516 102.19 72.011 102.19 71.7642C102.19 71.5175 102.267 71.2769 102.411 71.076C102.554 70.8752 102.757 70.7241 102.99 70.6438C103.176 70.58 103.375 70.5652 103.569 70.6007C103.762 70.6361 103.944 70.7208 104.095 70.8464C104.295 71.0069 104.427 71.2373 104.463 71.491C104.512 71.6629 104.482 71.7612 104.463 71.7612Z" fill="#263238"/>
<path d="M108.38 70.9814C108.277 71.0597 108.168 71.1315 108.055 71.1963L107.14 71.7489L104.114 73.5293L101.044 75.2729L100.111 75.7886C99.9994 75.8579 99.8823 75.9175 99.7607 75.9666C99.8634 75.8848 99.9722 75.8109 100.086 75.7456L101.001 75.1931L104.028 73.4188L107.097 71.6752L108.031 71.1533C108.143 71.0872 108.26 71.0297 108.38 70.9814Z" fill="#263238"/>
<path d="M105.716 68.5257C105.67 68.5641 105.62 68.5989 105.569 68.6301L105.127 68.9063L103.494 69.9193C102.118 70.7543 100.209 71.8962 98.0664 73.1057L92.5962 76.2122L90.9079 77.1086L90.4536 77.3541L90.2939 77.434C90.2939 77.434 90.3431 77.3971 90.4413 77.3357L90.8833 77.0656L92.5287 76.1017L97.9866 72.9645C100.123 71.7366 102.039 70.6254 103.432 69.815L105.084 68.8634L105.538 68.6055L105.716 68.5257Z" fill="#263238"/>
<path d="M61.4697 103.592L62.6362 105.723L64.7666 106.889L62.6362 108.056L61.4697 110.186L60.3032 108.056L58.1729 106.889L60.3032 105.723L61.4697 103.592Z" fill="#5D4037"/>
<path d="M69.2549 74.4178L70.4643 74.338L71.4405 73.6136L71.5203 74.8292L72.2448 75.8053L71.0292 75.8852L70.053 76.6035L69.9732 75.394L69.2549 74.4178Z" fill="#5D4037"/>
<path d="M265.629 171.297L266.838 171.218L267.815 170.493L267.894 171.709L268.619 172.685L267.403 172.765L266.427 173.483L266.347 172.274L265.629 171.297Z" fill="#5D4037"/>
<path d="M127.302 110.683L128.511 110.603L129.494 109.885L129.573 111.095L130.292 112.071L129.082 112.151L128.1 112.869L128.026 111.659L127.302 110.683Z" fill="#5D4037"/>
<path d="M134.683 58.8054L135.892 58.7256L136.868 58.0073L136.948 59.2167L137.666 60.1929L136.457 60.2727L135.481 60.9971L135.401 59.7816L134.683 58.8054Z" fill="#5D4037"/>
<path d="M97.5078 91.0003L99.3496 89.9382L100.326 88.0534L101.388 89.8952L103.279 90.8775L101.437 91.9335L100.455 93.8244L99.3926 91.9826L97.5078 91.0003Z" fill="#5D4037"/>
<path d="M252.251 195.683L254.093 194.621L255.069 192.736L256.131 194.578L258.016 195.554L256.174 196.616L255.198 198.501L254.136 196.659L252.251 195.683Z" fill="#5D4037"/>
<path d="M242.999 162.009L244.841 160.946L245.823 159.062L246.885 160.903L248.77 161.88L246.928 162.942L245.946 164.833L244.89 162.985L242.999 162.009Z" fill="#5D4037"/>
</svg>
